<?xml version="1.0" encoding="utf-8"?>
<!-- Generator: Adobe Illustrator 25.1.0, SVG Export Plug-In . SVG Version: 6.00 Build 0)  -->
<svg version="1.1" id="Layer_1" xmlns="http://www.w3.org/2000/svg" xmlns:xlink="http://www.w3.org/1999/xlink" x="0px" y="0px"
	 viewBox="0 0 45.1 45" style="enable-background:new 0 0 45.1 45;" xml:space="preserve">
<style type="text/css">
	.st0{display:none;}
	.st1{fill:#ED1C24;stroke:#ED1C24;stroke-miterlimit:10;}
</style>
<path class="st0" d="M45.9,19.1H9.2L26.7,2.3c1.3-1.1,1.4-3,0.3-4.2c-1.1-1.3-3-1.4-4.2-0.3C22.7-2.1,22.6-2,22.6-2L0.2,19.4
	c-1.2,1.1-1.2,3-0.1,4.2l21.4,22.5c0.6,0.6,1.3,0.9,2.2,0.9c0.8,0,1.5-0.3,2.1-0.8c1.2-1.1,1.2-3,0.1-4.2L9.8,25.1h36.1
	C45.9,25.1,45.9,19.1,45.9,19.1z"/>
<g>
	<path class="st1" d="M22.6,41.8C12,41.8,3.3,33.1,3.3,22.5S11.9,3.2,22.6,3.2s19.3,8.7,19.3,19.3S33.1,41.8,22.6,41.8z M22.6,4.3
		c-10,0-18.2,8.2-18.2,18.2s8.2,18.2,18.2,18.2s18.2-8.2,18.2-18.2S32.5,4.3,22.6,4.3z"/>
	<path class="st1" d="M22.6,43.2c-11.4,0-20.7-9.3-20.7-20.7S11.2,1.9,22.6,1.9s20.7,9.3,20.7,20.7C43.3,33.9,34,43.2,22.6,43.2z
		 M22.6,5.7c-9.3,0-16.8,7.5-16.8,16.8s7.5,16.8,16.8,16.8s16.8-7.5,16.8-16.8S31.8,5.7,22.6,5.7z"/>
</g>
<g>
	<g>
		<path class="st1" d="M31.7,21.4h-8v-8c0-0.7-0.5-1.2-1.2-1.2s-1.2,0.5-1.2,1.2v8h-8c-0.7,0-1.2,0.5-1.2,1.2s0.5,1.2,1.2,1.2h8v8
			c0,0.7,0.5,1.2,1.2,1.2s1.2-0.5,1.2-1.2v-8h8c0.7,0,1.2-0.5,1.2-1.2C32.9,21.9,32.4,21.4,31.7,21.4z"/>
		<path class="st1" d="M22.6,33.2c-0.8,0-1.5-0.7-1.5-1.5v-7.6h-7.6c-0.8,0-1.5-0.7-1.5-1.5s0.7-1.5,1.5-1.5H21v-7.6
			c0-0.8,0.7-1.5,1.5-1.5s1.5,0.7,1.5,1.5V21h7.6c0.8,0,1.5,0.7,1.5,1.5S32.4,24,31.6,24H24v7.6C24.1,32.5,23.4,33.2,22.6,33.2z
			 M13.4,21.7c-0.5,0-0.8,0.4-0.8,0.8c0,0.5,0.4,0.8,0.8,0.8h8.3v8.3c0,0.5,0.4,0.8,0.8,0.8c0.5,0,0.8-0.4,0.8-0.8v-8.3h8.3
			c0.5,0,0.8-0.4,0.8-0.8c0-0.5-0.4-0.8-0.8-0.8h-8.3v-8.3c0-0.5-0.4-0.8-0.8-0.8c-0.5,0-0.8,0.4-0.8,0.8v8.3H13.4z"/>
	</g>
</g>
</svg>
