<?xml version="1.0" encoding="utf-8"?>
<!-- Generator: Adobe Illustrator 24.2.3, SVG Export Plug-In . SVG Version: 6.00 Build 0)  -->
<svg version="1.1" id="Layer_1" xmlns="http://www.w3.org/2000/svg" xmlns:xlink="http://www.w3.org/1999/xlink" x="0px" y="0px"
	 viewBox="0 0 100 102" style="enable-background:new 0 0 100 102;" xml:space="preserve">
<style type="text/css">
	.st0{fill:#7A7A7A;}
</style>
<g>
	<path class="st0" d="M100,57.5c-0.4,2.1-0.7,4.1-1.1,6.2c-1.6,7.9-5.4,14.5-11.6,19.7c-1.8,1.5-2.5,3-2.4,5.4c0.1,4.2,0,8.3,0,13.2
		c-1.7-0.8-2.9-1.3-4.1-2c-8.5-4.9-17.2-8.2-27.2-8.1c-7.4,0.1-17.3-5.3-23.2-11.2c4.1,0,7.7-0.8,11.1,1.6c5.3,3.7,11.4,5.9,18,5.5
		c1.2-0.1,2.8,0,3.7-0.7c2.2-1.7,4-0.8,5.9,0.4c2.6,1.7,5.5,3.3,9,5.3c0-2.8,0.1-5,0-7.3c-0.1-1.8,0.5-3,2-4.2
		c6.5-5.2,11.9-11.4,14.3-19.6c2.2-7.9,0.1-15.1-4.1-21.9c-2.6-4.2-2.5-4.2-2-10c4.6,4.9,7.9,10,9.8,16.1c0.9,2.9,1.3,5.9,2,8.9
		C100,55.8,100,56.7,100,57.5z"/>
	<path class="st0" d="M12.2,82.6c0-5.3,0.1-9.8-0.1-14.3c-0.1-1.5-0.7-3.3-1.7-4.4C-2.8,49-3.6,27,8.9,13.5
		C18.8,2.8,31.4-0.9,45.7,0.2c15.7,1.2,29.9,13.1,33.6,28.4c4.8,19.6-8.2,39.8-28,43.2C45.7,72.7,40,72.6,34.3,73
		c-1.8,0.1-3.7,0.5-5.4,1.3C23.5,76.8,18.2,79.6,12.2,82.6z M19.6,73.1c3.4-2.1,6.7-4,9.9-5.8c0.8-0.4,2.1-0.9,2.8-0.7
		c5.4,2.6,11.1,2.1,16.6,0.9c12.5-2.8,21.4-9.9,25.4-22.3c3.7-11.4,0.4-21.3-7.7-29.7C53.5,1.9,32.2,0.7,18.1,12.7
		C4.8,24.2,3.2,43,14.9,58.2c3.2,4.1,5,7.9,4.2,13.1C19.2,71.8,19.3,72.2,19.6,73.1z"/>
	<path class="st0" d="M18.1,74.8c-0.1-0.9-0.4-1.5-0.4-2c0.8-5.3-1.2-9.4-4.5-13.6c-12.3-16-10.7-35.5,3.4-47.6
		C31.4-1,53.6,0.3,67.4,14.6c8.5,8.9,11.9,19.2,8.1,31C71.2,58.6,61.8,66.1,48.7,69c-5.8,1.2-11.8,1.8-17.4-0.9
		c-0.7-0.4-2.1,0.1-2.9,0.7C25.1,70.6,21.7,72.6,18.1,74.8z M40.7,41.1c2.6,0.1,4.8-2.1,4.9-4.8c0.1-2.6-2.1-4.9-4.6-4.9
		c-2.4,0-5,2.4-5,4.8C35.9,38.6,38.3,41.1,40.7,41.1z M66.1,36.2c0-2.5-2.4-4.8-4.9-4.8c-2.2,0-4.8,2.5-4.8,4.6
		c-0.1,2.5,2.5,5.2,5,5C64.1,41.1,66.1,38.9,66.1,36.2z M20.5,31.5c-2.4,0-4.9,2.4-4.9,4.8s2.4,4.9,4.8,4.9c2.6,0,4.8-2.1,4.9-4.8
		C25.4,33.9,23,31.6,20.5,31.5z"/>
</g>
</svg>
