<?xml version="1.0" encoding="utf-8"?>
<!-- Generator: Adobe Illustrator 24.2.3, SVG Export Plug-In . SVG Version: 6.00 Build 0)  -->
<svg version="1.1" id="Layer_1" xmlns="http://www.w3.org/2000/svg" xmlns:xlink="http://www.w3.org/1999/xlink" x="0px" y="0px"
	 viewBox="0 0 101 104" style="enable-background:new 0 0 101 104;" xml:space="preserve">
<style type="text/css">
	.st0{fill:#7A7A7A;stroke:#7A7A7A;stroke-width:0.5;stroke-miterlimit:10;}
	.st1{fill:#7A7A7A;stroke:#7A7A7A;stroke-miterlimit:10;}
	.st2{fill:#FFFFFF;stroke:#7A7A7A;stroke-width:3;stroke-miterlimit:10;}
</style>
<circle class="st0" cx="51" cy="24.4" r="24.2"/>
<path class="st1" d="M0.5,104c0-29.1,22.4-52.7,50-52.7s50,23.5,50,52.7"/>
<path class="st2" d="M80.1,78.7H46.7c-2,0-3.8-1.7-3.8-3.8l0,0c0-2,1.7-3.8,3.8-3.8h33.3c2,0,3.8,1.7,3.8,3.8l0,0
	C83.8,77,82.1,78.7,80.1,78.7z"/>
<path class="st2" d="M80.6,89.5H64.5c-1.7,0-3.2-1.4-3.2-3.2l0,0c0-1.8,1.4-3.2,3.2-3.2h16.1c1.8,0,3.2,1.4,3.2,3.2l0,0
	C83.8,88,82.4,89.5,80.6,89.5z"/>
</svg>
