<?xml version="1.0" encoding="utf-8"?>
<!-- Generator: Adobe Illustrator 25.0.1, SVG Export Plug-In . SVG Version: 6.00 Build 0)  -->
<svg version="1.1" id="Layer_1" xmlns="http://www.w3.org/2000/svg" xmlns:xlink="http://www.w3.org/1999/xlink" x="0px" y="0px"
	 viewBox="0 0 100 101" style="enable-background:new 0 0 100 101;" xml:space="preserve">
<style type="text/css">
	.st0{fill:#FFFFFF;stroke:#000000;stroke-miterlimit:10;}
</style>
<path class="st0" d="M-33.1,124.2"/>
<g>
	<g id="XMLID_1992_">
		<path id="XMLID_2003_" d="M49.9,36.1c-8,0-14.4,6.5-14.4,14.4S42,64.9,49.9,64.9s14.4-6.5,14.4-14.4
			C64.3,42.5,57.9,36.1,49.9,36.1z M49.9,45.8c-2.6,0-4.7,2.1-4.7,4.7c0,1.2-1,2.2-2.2,2.2s-2.2-1-2.2-2.2c0-5,4-9,9-9
			c1.2,0,2.2,1,2.2,2.2C52.1,44.8,51.1,45.8,49.9,45.8z"/>
		<path id="XMLID_2012_" d="M97.1,46.5C52.3-18,11.7,33.1,2.1,47.2c-1.3,1.9-1.3,4.7,0,6.5c44.3,64.6,84.5,16.1,95,0.9
			C98.8,52.3,98.8,48.8,97.1,46.5z M49.9,71c-11.3,0-20.5-9.2-20.5-20.5S38.6,30,49.9,30s20.5,9.2,20.5,20.5S61.2,71,49.9,71z"/>
	</g>
</g>
</svg>
