<?xml version="1.0" encoding="utf-8"?>
<!-- Generator: Adobe Illustrator 25.0.1, SVG Export Plug-In . SVG Version: 6.00 Build 0)  -->
<svg version="1.1" id="Layer_1" xmlns="http://www.w3.org/2000/svg" xmlns:xlink="http://www.w3.org/1999/xlink" x="0px" y="0px"
	 viewBox="0 0 100 101" style="enable-background:new 0 0 100 101;" xml:space="preserve">
<style type="text/css">
	.st0{fill:#7A7A7A;}
</style>
<g>
	<g>
		<path class="st0" d="M52.7,6.6v40.8l30.8-26.5C76.1,12.2,65.1,6.7,52.7,6.6z"/>
		<path class="st0" d="M82.7,27.1l-30,25.7l39.1,0c0-0.1,0-0.1,0-0.2C91.8,42.6,88.7,34.2,82.7,27.1z"/>
		<path class="st0" d="M91.8,57.5H52.7v38.1C74.2,95.5,91.7,78.5,91.8,57.5z"/>
		<path class="st0" d="M49,96V55.4V14.7c-0.1,0-0.1,0-0.2,0c-22.4,0-40.6,18.2-40.6,40.7S26.4,96,48.8,96C48.9,96,49,96,49,96z"/>
	</g>
</g>
</svg>
