<?xml version="1.0" encoding="utf-8"?>
<!-- Generator: Adobe Illustrator 24.2.3, SVG Export Plug-In . SVG Version: 6.00 Build 0)  -->
<svg version="1.1" id="Layer_1" xmlns="http://www.w3.org/2000/svg" xmlns:xlink="http://www.w3.org/1999/xlink" x="0px" y="0px"
	 viewBox="0 0 150 150" style="enable-background:new 0 0 150 150;" xml:space="preserve">
<style type="text/css">
	.st0{fill:#808080;}
	.st1{fill:#FFFFFF;}
</style>
<g>
	<path class="st0" d="M70.9,44.5c2.3,0,4.7,0,7,0c1.6,0.3,3.2,0.7,4.8,1c17.4,3.1,30.6,13.2,42.2,25.7c2.9,3.1,2.8,3.9-0.1,7.1
		c-9.3,10.4-20.4,18.5-33.6,23.4c-7.7,2.9-15.8,3.8-24,2.2C49.9,100.7,36.5,91,25,78.3c-2.7-2.9-2.7-4.3,0-7.3
		c10.1-10.9,21.7-19.6,36.1-24.1C64.3,45.9,67.7,45.3,70.9,44.5z M94.6,73.7c-0.2-11.4-8.7-19.6-20.2-19.5
		c-10.8,0.1-19.4,9-19.2,19.9c0.2,11.2,9,19.6,20.4,19.3C86.4,93.3,94.7,84.6,94.6,73.7z"/>
	<path class="st1" d="M70.9,44.5c-3.3,0.8-6.6,1.4-9.8,2.4C46.8,51.5,35.1,60.1,25,71c-2.7,3-2.7,4.3,0,7.3
		c11.5,12.7,24.9,22.4,42.2,25.6c8.3,1.6,16.3,0.6,24-2.2c13.2-4.9,24.2-13,33.6-23.4c2.9-3.2,2.9-4.1,0.1-7.1
		c-11.6-12.5-24.8-22.6-42.2-25.7c-1.6-0.3-3.2-0.6-4.8-1c16.5,0,33.1,0,49.6,0c0,20.3,0,40.7,0,61c-35,0-70,0-105,0
		c0-20.3,0-40.7,0-61C38.6,44.5,54.8,44.5,70.9,44.5z"/>
	<path class="st1" d="M94.6,73.7c0.2,10.9-8.2,19.6-19,19.8c-11.4,0.2-20.2-8.2-20.4-19.3C55,63.3,63.6,54.4,74.4,54.2
		C85.8,54.1,94.4,62.3,94.6,73.7z M84.4,73.8c0-5.4-4.3-9.6-9.6-9.5c-5.1,0.1-9.4,4.4-9.4,9.6c-0.1,5.1,4.5,9.5,9.8,9.5
		C80.3,83.3,84.4,79.1,84.4,73.8z"/>
	<path class="st0" d="M84.4,73.8c0,5.2-4.1,9.5-9.3,9.5c-5.3,0.1-9.8-4.3-9.8-9.5c0.1-5.2,4.3-9.5,9.4-9.6
		C80.1,64.3,84.3,68.4,84.4,73.8z"/>
</g>
</svg>
