<?xml version="1.0" encoding="utf-8"?>
<!-- Generator: Adobe Illustrator 25.0.1, SVG Export Plug-In . SVG Version: 6.00 Build 0)  -->
<svg version="1.1" id="Layer_1" xmlns="http://www.w3.org/2000/svg" xmlns:xlink="http://www.w3.org/1999/xlink" x="0px" y="0px"
	 viewBox="0 0 100 102" style="enable-background:new 0 0 100 102;" xml:space="preserve">
<style type="text/css">
	.st0{fill:#7A7A7A;}
	.st1{fill:#FFFFFF;}
</style>
<g>
	<path class="st0" d="M95.5,97.5L95.5,97.5c-1.5,1.5-4,1.6-5.5,0L43.3,51.6c-1.5-1.5-1.6-4,0-5.5l0,0c1.5-1.5,4-1.6,5.5,0L95.5,92
		C97,93.5,97,96,95.5,97.5z"/>
	<path class="st0" d="M92.1,101.2c-1.5-0.1-2.9-0.8-3.9-1.8L41.6,53.4c-1.2-1.2-1.9-2.8-1.9-4.5c0-1.7,0.6-3.3,1.8-4.6
		c2.5-2.5,6.6-2.6,9.1-0.1l46.7,45.9c1.2,1.2,1.9,2.8,1.9,4.5c0,1.7-0.6,3.3-1.8,4.6l0,0c-1.2,1.2-2.8,1.9-4.5,1.9
		C92.6,101.2,92.4,101.2,92.1,101.2z M46.2,47.5c-0.4,0-0.8,0.1-1.1,0.4c-0.3,0.3-0.4,0.6-0.4,1c0,0.4,0.2,0.7,0.4,1l46.7,45.9
		c0.3,0.3,0.6,0.4,1,0.4c0.4,0,0.7-0.2,1-0.4l0,0c0.3-0.3,0.4-0.6,0.4-1c0-0.4-0.2-0.7-0.4-1L47,47.9C46.8,47.6,46.5,47.5,46.2,47.5
		z"/>
</g>
<ellipse class="st0" cx="42.1" cy="42.2" rx="41.9" ry="41.5"/>
<g>
	<path class="st1" d="M51.2,59.3L51.2,59.3c1.3,0,2.4-1.1,2.4-2.4V20.1c0-1.3-1.1-2.4-2.4-2.4h0c-1.3,0-2.4,1.1-2.4,2.4v36.8
		C48.8,58.2,49.9,59.3,51.2,59.3z"/>
	<path class="st1" d="M39.9,59.3L39.9,59.3c1.3,0,2.4-1.1,2.4-2.4V35.3c0-1.3-1.1-2.4-2.4-2.4h0c-1.3,0-2.4,1.1-2.4,2.4v21.6
		C37.5,58.2,38.6,59.3,39.9,59.3z"/>
	<path class="st1" d="M28.1,59.3L28.1,59.3c1.3,0,2.4-1.1,2.4-2.4V44.7c0-1.3-1.1-2.4-2.4-2.4h0c-1.3,0-2.4,1.1-2.4,2.4v12.2
		C25.7,58.2,26.8,59.3,28.1,59.3z"/>
</g>
</svg>
