<?xml version="1.0" encoding="utf-8"?>
<!-- Generator: Adobe Illustrator 24.2.3, SVG Export Plug-In . SVG Version: 6.00 Build 0)  -->
<svg version="1.1" id="Layer_1" xmlns="http://www.w3.org/2000/svg" xmlns:xlink="http://www.w3.org/1999/xlink" x="0px" y="0px"
	 viewBox="0 0 100 101" style="enable-background:new 0 0 100 101;" xml:space="preserve">
<style type="text/css">
	.st0{fill:#7A7A7A;}
	.st1{fill:#FFFFFF;}
</style>
<g>
	<path class="st0" d="M50.5,0v48.8l36.9-31.7C78.5,6.7,65.3,0.1,50.5,0z"/>
	<path class="st0" d="M88.4,18.8L51.5,50.5H100c0-0.1,0-0.1,0-0.2C100,38.3,95.6,27.3,88.4,18.8z"/>
	<path class="st0" d="M99,52.5H50.5V101C77.2,100.9,98.9,79.3,99,52.5z"/>
	<path class="st0" d="M48.8,101V52.5V3.7c-0.1,0-0.1,0-0.2,0C21.8,3.7,0,25.5,0,52.4S21.8,101,48.6,101C48.7,101,48.8,101,48.8,101z
		"/>
	<path class="st1" d="M44.4,48.8c-0.9,0-1.7-0.8-1.7-1.7V7.9c0-0.9,0.8-1.7,1.7-1.7s1.7,0.8,1.7,1.7v39.2
		C46.1,48.1,45.4,48.8,44.4,48.8z"/>
	<path class="st1" d="M38.7,48.8c-0.9,0-1.7-0.3-1.7-0.6V35.4c0-0.3,0.8-0.6,1.7-0.6s1.7,0.3,1.7,0.6v12.9
		C40.4,48.6,39.6,48.8,38.7,48.8z"/>
</g>
</svg>
